<?xml version="1.0" encoding="UTF-8" standalone="no"?>
<svg
   xmlns:dc="http://purl.org/dc/elements/1.1/"
   xmlns:cc="http://creativecommons.org/ns#"
   xmlns:rdf="http://www.w3.org/1999/02/22-rdf-syntax-ns#"
   xmlns:svg="http://www.w3.org/2000/svg"
   xmlns="http://www.w3.org/2000/svg"
   xmlns:sodipodi="http://sodipodi.sourceforge.net/DTD/sodipodi-0.dtd"
   xmlns:inkscape="http://www.inkscape.org/namespaces/inkscape"
   width="1000"
   height="542.31201"
   viewBox="0 0 749.99998 406.73403"
   version="1.1"
   id="svg2"
   inkscape:version="0.92.2 (5c3e80d, 2017-08-06)"
   sodipodi:docname="ETC (2016).svg">
  <metadata
     id="metadata15">
    <rdf:RDF>
      <cc:Work
         rdf:about="">
        <dc:format>image/svg+xml</dc:format>
        <dc:type
           rdf:resource="http://purl.org/dc/dcmitype/StillImage" />
        <dc:title></dc:title>
      </cc:Work>
    </rdf:RDF>
  </metadata>
  <defs
     id="defs13" />
  <sodipodi:namedview
     pagecolor="#ffffff"
     bordercolor="#666666"
     borderopacity="1"
     objecttolerance="10"
     gridtolerance="10"
     guidetolerance="10"
     inkscape:pageopacity="0"
     inkscape:pageshadow="2"
     inkscape:window-width="1024"
     inkscape:window-height="706"
     id="namedview11"
     showgrid="false"
     inkscape:zoom="0.20847206"
     inkscape:cx="395.47623"
     inkscape:cy="572.05939"
     inkscape:window-x="-8"
     inkscape:window-y="-8"
     inkscape:window-maximized="1"
     inkscape:current-layer="svg2"
     units="px" />
  <g
     id="#221d35ff"
     style="fill:#f095a6;fill-opacity:1"
     transform="matrix(0.77656632,0,0,0.77656632,0,-0.24050152)">
    <path
       d="m 431.31,0 h 60.51 c -0.02,41.7 -0.07,83.41 0.03,125.11 34.79,0.08 69.58,0.02 104.37,0.03 0.1,20.2 0.19,40.41 -0.04,60.62 -34.78,-0.03 -69.56,-0.11 -104.34,0.04 -0.11,59.07 0.02,118.14 -0.07,177.21 -0.46,16.94 2.14,34.06 8.44,49.84 6.19,15.64 16.83,29.78 31.22,38.72 15.45,9.83 34.03,13.27 52.11,13.45 0.24,19.56 0.1,39.12 0.07,58.68 -13.45,0.43 -26.89,-1.51 -39.96,-4.58 -30.66,-7.18 -59.95,-23.19 -79.7,-48.1 -21.81,-26.94 -30.96,-61.97 -32.32,-96.09 -0.56,-21.64 -0.14,-43.29 -0.27,-64.93 -0.03,-103.33 0.06,-206.67 -0.05,-310 z"
       id="path5"
       style="opacity:1;fill:#f095a6;fill-opacity:1"
       inkscape:connector-curvature="0" />
    <path
       d="m 109.91,147.01 c 32.8,-16.41 70.24,-23.43 106.75,-19.89 55.44,4.81 108.47,34.46 140.84,79.84 -78.32,78.39 -156.6,156.82 -234.95,235.18 26.81,17.35 59.74,24.87 91.43,21.05 29.43,-3.31 57.56,-16.53 79.1,-36.82 13.86,14.11 27.57,28.37 41.25,42.65 -21.27,20.12 -47.04,35.51 -74.92,44.49 -39.57,12.9 -83.23,12.83 -122.77,-0.16 C 91.41,498.69 52.06,467 27.88,426.08 10.56,397.28 1.27,363.98 0,330.46 v -11.91 c 1.28,-30.32 8.88,-60.46 23.34,-87.21 19.21,-36.16 49.92,-66.07 86.57,-84.33 m 30.38,50.27 c -27.81,12.52 -51.24,34.49 -65.55,61.42 -11.19,20.86 -16.95,44.64 -16.39,68.31 0.2,25.4 8.03,50.47 21.29,72.07 0.96,-0.85 1.9,-1.71 2.83,-2.6 48.8,-48.87 97.65,-97.69 146.46,-146.55 14.38,-14.56 29.12,-28.77 43.27,-43.55 -13.73,-8.43 -28.74,-14.84 -44.51,-18.22 -29.1,-6.37 -60.28,-3.3 -87.4,9.12 z"
       id="path7"
       style="opacity:1;fill:#f095a6;fill-opacity:1"
       inkscape:connector-curvature="0" />
    <path
       d="m 812,127.04 c 36.77,-3.38 74.46,3.78 107.35,20.6 15.67,7.9 30.17,18.03 43.25,29.71 0.85,0.8 1.72,1.61 2.37,2.6 -13.58,14.14 -27,28.46 -40.8,42.39 -25,-23.41 -58.87,-37.24 -93.17,-37.35 -34.51,-0.74 -69,12.27 -94.62,35.35 -26.96,23.9 -44.04,58.6 -46.28,94.59 -2.5,34.28 8.26,69.32 29.71,96.19 22.35,28.5 56.19,47.75 92.2,51.96 34.07,4.35 69.63,-4.5 97.57,-24.5 5.36,-3.67 10.17,-8.04 15.18,-12.15 13.66,14.21 27.4,28.33 41.03,42.58 -20.41,19.34 -44.97,34.28 -71.57,43.39 -39.05,13.51 -82.35,14.29 -121.87,2.28 -31.03,-9.36 -59.68,-26.51 -82.54,-49.49 C 662.48,438.09 643.35,402.8 635.68,365.08 628.01,328.35 631,289.44 644.35,254.37 656.8,221.36 678.3,191.86 705.82,169.8 735.98,145.52 773.4,130.32 812,127.04 Z"
       id="path9"
       style="opacity:1;fill:#f095a6;fill-opacity:1"
       inkscape:connector-curvature="0" />
  </g>
</svg>
