<?xml version="1.0" encoding="UTF-8"?>
<svg id="Layer_1" data-name="Layer 1" xmlns="http://www.w3.org/2000/svg" viewBox="0 0 2800.84 1705.15">
  <defs>
    <style>
      .cls-1 {
        letter-spacing: -.01em;
      }

      .cls-2 {
        letter-spacing: -.02em;
      }

      .cls-3 {
        letter-spacing: 0em;
      }

      .cls-4 {
        letter-spacing: .02em;
      }

      .cls-5, .cls-6, .cls-7, .cls-8 {
        fill: #1c59a8;
      }

      .cls-9 {
        letter-spacing: .01em;
      }

      .cls-10 {
        letter-spacing: .02em;
      }

      .cls-6 {
        font-family: NeueKabel-Light, 'Neue Kabel';
        font-size: 202px;
        font-weight: 300;
      }

      .cls-11 {
        letter-spacing: .04em;
      }

      .cls-12 {
        letter-spacing: -.02em;
      }

      .cls-13 {
        letter-spacing: -.04em;
      }

      .cls-14 {
        letter-spacing: .03em;
      }

      .cls-7 {
        font-family: NeueKabel-Medium, 'Neue Kabel';
        font-size: 273px;
        font-weight: 500;
      }

      .cls-15 {
        letter-spacing: -.03em;
      }

      .cls-16 {
        letter-spacing: -.01em;
      }

      .cls-8 {
        font-family: Athelas-Bold, Athelas;
        font-size: 101.01px;
        font-weight: 700;
      }

      .cls-17 {
        letter-spacing: -.01em;
      }

      .cls-18 {
        letter-spacing: 0em;
      }

      .cls-19 {
        letter-spacing: 0em;
      }

      .cls-20 {
        letter-spacing: 0em;
      }

      .cls-21 {
        letter-spacing: -.04em;
      }

      .cls-22 {
        letter-spacing: -.01em;
      }

      .cls-23 {
        letter-spacing: .04em;
      }
    </style>
  </defs>
  <text class="cls-7" transform="translate(1231.6 986.09)"><tspan class="cls-23" x="0" y="0">G</tspan><tspan class="cls-11" x="206.93" y="0">E</tspan><tspan class="cls-4" x="363.09" y="0">N</tspan><tspan class="cls-11" x="574.93" y="0">E</tspan><tspan class="cls-14" x="731.09" y="0">R</tspan><tspan class="cls-3" x="892.7" y="0">A</tspan><tspan x="1080.8" y="0">L</tspan></text>
  <path class="cls-5" d="M1033.82,872.48c0-47.57-38.06-86.14-85.02-86.14-13.99,0-27.18,3.45-38.82,9.51l-81.21-142.51c23.42-15.34,38.93-42.01,38.93-72.37,0-47.57-38.06-86.14-85.02-86.14-30.12,0-56.56,15.88-71.66,39.82H423.55l-192.5,337.82,192.5,337.83h386.06l143.48-251.8c44.96-2.26,80.73-39.91,80.73-86.03Zm-131.1-72.37c-10.26,6.72-19,15.62-25.58,26.05h-188.77c-6.62-10.45-15.39-19.35-25.7-26.06l81.2-142.5c11.64,6.07,24.83,9.51,38.82,9.51s27.18-3.45,38.82-9.51l81.21,142.51Zm-285.94,158.62c13.95,0,27.1-3.43,38.72-9.46l95.95,168.39H481.84l96.36-168.32c11.58,5.99,24.68,9.39,38.58,9.39Zm27.75-86.14c0,15.92-12.45,28.87-27.75,28.87s-27.75-12.95-27.75-28.87,12.45-28.87,27.75-28.87,27.75,12.95,27.75,28.87Zm138.16-320.5c15.3,0,27.75,12.95,27.75,28.87s-12.45,28.87-27.75,28.87-27.75-12.95-27.75-28.87,12.45-28.87,27.75-28.87Zm-46.08,101.24l-81.21,142.52c-11.59-6-24.71-9.4-38.61-9.4s-27.09,3.42-38.71,9.45l-96.3-168.62h229.26c6.58,10.43,15.32,19.33,25.58,26.05Zm-398.94,219.14l137.06-240.53,96.07,168.21c-23.48,15.33-39.04,42.03-39.04,72.44s15.61,57.2,39.16,72.52l-96.16,167.96-137.1-240.59Zm420.79,240.48l-95.69-167.93c10.34-6.75,19.14-15.71,25.75-26.23h180.58l-110.64,194.16Zm190.34-211.61c-15.3,0-27.75-12.95-27.75-28.87s12.45-28.87,27.75-28.87,27.75,12.95,27.75,28.87-12.45,28.87-27.75,28.87Z"/>
  <text class="cls-8" transform="translate(1241.08 695)"><tspan class="cls-12" x="0" y="0">D</tspan><tspan class="cls-16" x="74.63" y="0">e</tspan><tspan class="cls-1" x="121.94" y="0">e</tspan><tspan x="169.72" y="0">p L</tspan><tspan class="cls-16" x="306.18" y="0">e</tspan><tspan class="cls-10" x="353.49" y="0">a</tspan><tspan class="cls-20" x="404.8" y="0">r</tspan><tspan class="cls-18" x="446.52" y="0">n</tspan><tspan class="cls-9" x="504.6" y="0">i</tspan><tspan class="cls-15" x="536.12" y="0">n</tspan><tspan x="592.18" y="0">g </tspan><tspan class="cls-13" x="664.6" y="0">f</tspan><tspan class="cls-22" x="695.19" y="0">o</tspan><tspan x="748.02" y="0">r</tspan></text>
  <text class="cls-6" transform="translate(1239.79 1210.31)"><tspan class="cls-21" x="0" y="0">2</tspan><tspan class="cls-2" x="103.22" y="0">0</tspan><tspan class="cls-19" x="226.13" y="0">2</tspan><tspan x="334.41" y="0">3 </tspan><tspan class="cls-17" x="485.3" y="0">#</tspan><tspan x="624.21" y="0">2</tspan></text>
  <g>
    <path class="cls-5" d="M1245.97,586.41c-1.14-.87-1.72-1.85-1.72-2.92,0-.74,.28-1.42,.8-1.94,3.63-3.5,6.22-7.08,7.72-10.67,1.5-3.6,2.27-7.75,2.27-12.33v-54.26c0-1.31-.56-1.78-.99-2.03-.6-.35-1.98-.87-5.18-1.34-.6-.12-1.88-.61-1.88-2.73,0-.46,.07-1.06,.22-1.83l.18-.86s5.28,.31,7.62,.41c2.33,.1,4.26,.16,5.81,.16s3.56-.05,5.8-.16c2.27-.1,4.38-.22,6.34-.35l.88-.06,.17,.87c.15,.76,.22,1.36,.22,1.82,0,2.3-1.42,2.68-2.03,2.74-2.87,.45-4.14,.97-4.7,1.31-.38,.25-.9,.73-.9,2.05v44.08c0,4.77-.21,8.92-.61,12.33-.43,3.5-1.35,6.7-2.75,9.53-1.4,2.84-3.42,5.56-5.99,8.11-2.55,2.51-5.96,5.23-10.11,8.1l-.6,.41-.58-.44Z"/>
    <path class="cls-5" d="M1296.18,563.93c-.15-.76-.22-1.38-.22-1.82,0-2.04,1.35-2.52,1.94-2.62,2.36-.57,4.1-1.12,5.13-1.64,.74-.36,1.08-.91,1.08-1.75v-51.81c0-1.28-.57-1.73-1-1.96-.64-.34-2.06-.87-5.2-1.42-.71-.12-1.28-.53-1.59-1.15-.23-.48-.35-1-.35-1.57,0-.46,.07-1.06,.22-1.82l.18-.9,.9,.09c1.4,.14,2.62,.22,3.65,.26,1.06,.03,2.07,.09,3.03,.15,.93,.07,1.85,.1,2.74,.1h23.77c5.8,0,10.99,.92,15.39,2.72,4.42,1.81,8.15,4.28,11.08,7.36,2.94,3.07,5.16,6.72,6.63,10.84,1.46,4.09,2.2,8.52,2.2,13.16,0,4.1-.72,8.22-2.15,12.25-1.44,4.05-3.62,7.74-6.51,10.97-2.9,3.25-6.61,5.91-11.02,7.88-4.42,1.99-9.64,2.99-15.53,2.99h-20.86c-1.76,0-3.74,.05-5.96,.15-2.23,.1-7.37,.42-7.37,.42l-.17-.87Zm19.5-8.54c0,.47,.11,.84,.32,1.14,.21,.29,.63,.55,1.22,.75,.72,.24,1.78,.43,3.14,.56,1.4,.14,3.17,.21,5.3,.21,5.08,0,9.42-.61,12.9-1.83,3.43-1.19,6.24-2.92,8.36-5.14,2.13-2.22,3.69-4.95,4.65-8.11,.98-3.22,1.48-6.89,1.48-10.9,0-10.12-2.52-17.7-7.49-22.54-4.98-4.84-12.4-7.3-22.05-7.3h-7.85v53.15Z"/>
    <path class="cls-5" d="M1381.38,563.93c-.16-.77-.22-1.38-.22-1.83,0-2.03,1.27-2.51,1.82-2.62,3.33-.57,4.77-1.11,5.41-1.46,.7-.4,1.02-.96,1.02-1.83v-51.92c0-1.31-.54-1.79-.95-2.04-.57-.35-1.92-.87-5.12-1.33-.68-.14-1.18-.5-1.5-1.06-.25-.46-.38-.98-.38-1.57,0-.53,.07-1.17,.22-1.92l.17-.87s5.45,.31,7.68,.41c2.23,.1,4.11,.16,5.66,.16,2.29,0,4.72-.05,7.29-.16,2.57-.1,4.87-.22,6.89-.35l.88-.06,.17,.87c.15,.76,.22,1.36,.22,1.82,0,2.41-1.43,2.79-2.05,2.84-2.79,.33-4.86,.8-6.12,1.38-1.04,.48-1.51,1.29-1.51,2.6v50.89c0,.77,.29,1.23,.95,1.54,.89,.42,2.15,.62,3.75,.62h11.1c1.83,0,3.43-.24,4.75-.71,1.29-.47,2.4-1.13,3.32-1.98,.94-.88,1.78-1.98,2.5-3.27,.76-1.34,1.43-2.86,2.02-4.57,.35-.95,1.14-1.49,2.17-1.49,.48,0,.96,.11,1.47,.34l1.92,.94-.18,.76c-.47,2.02-.93,4.17-1.36,6.43-.44,2.26-.83,4.79-1.16,7.61-.1,1.06-.47,1.8-1.1,2.17-.49,.29-1.07,.45-1.73,.45-1.18,0-2.66-.09-4.42-.26-1.69-.16-3.17-.25-4.43-.25h-25.45c-1.55,0-3.5,.05-5.86,.15-2.37,.1-7.67,.42-7.67,.42l-.18-.86Z"/>
    <path class="cls-5" d="M1446.23,563.98c-.16-.63-.23-1.25-.23-1.87s.12-1.19,.36-1.68c.23-.45,.73-1.02,1.84-1.16,1.96-.32,3.46-.72,4.42-1.18,.84-.41,1.43-1.02,1.81-1.89l24.53-59.03c.8-1.94,1.99-2.34,2.86-2.34,.35,0,.81,.07,1.46,.22l.5,.12,24.83,61.35c.29,.67,1.02,1.24,2.18,1.69,1.35,.51,2.69,.87,3.96,1.06,.72,.22,1.17,.49,1.53,.84,.45,.46,.65,1.11,.65,2,0,.45-.07,1.06-.22,1.83l-.18,.86s-5.17-.31-7.27-.42c-2.08-.1-4.04-.15-5.85-.15s-4.05,.05-6.48,.15c-2.43,.1-4.62,.22-6.59,.36l-.88,.06-.17-.87c-.15-.76-.22-1.38-.22-1.82,0-.89,.21-1.54,.64-1.98l.3-.3,1.08-.35c1.5-.3,2.86-.67,3.9-1.1,1-.41,1-.86,1-1.06,0-.15-.04-.48-.32-1.12l-6.19-16.2h-21.33l-6.26,15.76c-.36,.87-.44,1.38-.44,1.66,0,.13,.15,1.3,5.35,2.06,.99,.15,1.47,.66,1.7,1.06,.25,.46,.38,.99,.38,1.57,0,.44-.07,1.06-.22,1.82l-.17,.88s-4.64-.33-6.67-.43c-2.02-.1-4-.15-5.95-.15-1.34,0-2.72,.03-4.13,.1-1.4,.06-2.87,.2-4.39,.4l-.9,.12-.21-.87Zm40.85-30.15l-8.03-21.16-8.37,21.16h16.4Z"/>
  </g>
  <rect class="cls-5" x="231.05" y="1346.26" width="2338.74" height="6.31"/>
  <rect class="cls-5" x="328.41" y="1312.37" width="2144.01" height="6.31"/>
  <rect class="cls-5" x="231.05" y="352.57" width="2338.74" height="6.31"/>
  <rect class="cls-5" x="328.41" y="386.46" width="2144.01" height="6.31"/>
  <rect class="cls-5" x="1135.88" y="494.84" width="6.31" height="715.47"/>
</svg>