<?xml version="1.0" encoding="UTF-8"?>
<svg id="Layer_1" data-name="Layer 1" xmlns="http://www.w3.org/2000/svg" viewBox="0 0 2800.84 1705.15">
  <defs>
    <style>
      .cls-1 {
        letter-spacing: -.02em;
      }

      .cls-2, .cls-3 {
        fill: #0859a8;
      }

      .cls-3 {
        font-family: NeueKabel-Light, 'Neue Kabel';
        font-size: 247.38px;
        font-weight: 300;
      }

      .cls-4 {
        letter-spacing: -.01em;
      }

      .cls-5 {
        letter-spacing: 0em;
      }

      .cls-6 {
        letter-spacing: -.03em;
      }
    </style>
  </defs>
  <path class="cls-2" d="M1815.7,691.07c0-46.6-37.29-84.38-83.29-84.38-13.71,0-26.63,3.38-38.03,9.32l-79.56-139.61c22.94-15.03,38.14-41.16,38.14-70.9,0-46.6-37.29-84.38-83.29-84.38-29.51,0-55.41,15.56-70.2,39.01h-281.63l-188.59,330.95,188.59,330.95h378.2l140.56-246.67c44.05-2.22,79.09-39.1,79.09-84.28Zm-128.43-70.9c-10.05,6.58-18.61,15.3-25.06,25.52h-184.93c-6.48-10.24-15.08-18.95-25.18-25.53l79.55-139.6c11.4,5.94,24.32,9.32,38.03,9.32s26.63-3.38,38.03-9.32l79.56,139.61Zm-280.12,155.4c13.67,0,26.55-3.36,37.93-9.27l94,164.96h-264.13l94.4-164.89c11.35,5.87,24.18,9.2,37.79,9.2Zm27.19-84.38c0,15.6-12.2,28.28-27.19,28.28s-27.19-12.69-27.19-28.28,12.2-28.28,27.19-28.28,27.19,12.69,27.19,28.28Zm135.35-313.97c14.99,0,27.19,12.69,27.19,28.28s-12.2,28.28-27.19,28.28-27.19-12.69-27.19-28.28,12.2-28.28,27.19-28.28Zm-45.15,99.18l-79.56,139.62c-11.35-5.88-24.2-9.21-37.83-9.21s-26.54,3.35-37.92,9.26l-94.34-165.19h224.59c6.45,10.22,15.01,18.94,25.06,25.52Zm-390.82,214.68l134.27-235.64,94.12,164.79c-23,15.02-38.24,41.18-38.24,70.96s15.3,56.03,38.36,71.04l-94.2,164.54-134.31-235.69Zm412.23,235.58l-93.74-164.51c10.13-6.62,18.75-15.39,25.23-25.7h176.91l-108.39,190.21Zm186.47-207.3c-14.99,0-27.19-12.69-27.19-28.28s12.2-28.28,27.19-28.28,27.19,12.69,27.19,28.28-12.2,28.28-27.19,28.28Z"/>
  <text class="cls-3" transform="translate(972.72 1316.75)"><tspan class="cls-6" x="0" y="0">2</tspan><tspan class="cls-1" x="126.41" y="0">0</tspan><tspan class="cls-5" x="276.94" y="0">2</tspan><tspan x="409.53" y="0">3 </tspan><tspan class="cls-4" x="594.32" y="0">#</tspan><tspan x="764.44" y="0">2</tspan></text>
</svg>