<svg version="1.1" id="Layer_1" xmlns="http://www.w3.org/2000/svg" xmlns:xlink="http://www.w3.org/1999/xlink" x="0px" y="0px"
	 viewBox="0 0 160.2 54" style="enable-background:new 0 0 160.2 54;" xml:space="preserve">
<style type="text/css">
	.st0{fill-rule:evenodd;clip-rule:evenodd;fill:#EE342A;}
	.st1{fill:#25348B;}
</style>
<g>
	<path class="st0" d="M26.7,53.1c-0.2,0-0.5,0-0.7,0c-0.2,0-0.5,0-0.7,0c-6.2-0.2-11.8-2.4-16.1-6.7C4.8,42,2.7,36.4,2.8,30.2
		c0-6,2-11.5,6.1-15.9c4.3-4.4,9.9-6.7,16.1-6.7c0.2,0,0.5,0,0.7,0c0.2,0,0.5,0,0.7,0c6.2,0.2,11.8,2.4,16.1,6.7
		c4.3,4.4,6.4,9.9,6.2,16.1c0,6-2,11.5-6.1,15.9C40.2,50.8,33.1,53.1,26.7,53.1z M25.9,12c-0.2,0-0.5,0-0.7,0
		c-5.5,0.2-10.5,2.3-14.3,6.2c-3.8,3.9-5.8,8.9-5.7,14.4c0,5.3,2,10.1,5.7,13.9c3.8,3.9,8.9,6,14.4,5.8c0.2,0,0.5,0,0.7,0
		c0.2,0,0.5,0,0.7,0c5.5-0.2,10.5-2.3,14.3-6.2c3.8-3.9,5.8-8.9,5.7-14.4c0-5.3-2-10.1-5.7-13.9C38.1,14.2,32.8,12,25.9,12z"/>
	<path class="st1" d="M70.5,38.2V18.8h-5.8v25.5h16.8v-5.8h-11V38.2z"/>
	<path class="st1" d="M83.8,44.3h5.8V8.5h-5.8V44.3z"/>
	<path class="st1" d="M105.4,32.3c0,7.3-5.3,12.5-12.7,12.5h-9.1V8.5h9.1c7.4,0,12.7,5.2,12.7,12.5v2.3
		C105.4,26.5,105.4,29.4,105.4,32.3z M99.6,31.6c0-4.1-2.9-7-7.2-7h-3.5v13.9h3.5C96.7,38.5,99.6,35.6,99.6,31.6z M99.6,19.8
		c0-3.4-2.5-6.2-6.5-6.2h-2.8v12.2h2.8C97.2,25.8,99.6,23.2,99.6,19.8z"/>
	<path class="st1" d="M122.9,8.5v35.8h-5.8V8.5H122.9z"/>
	<path class="st1" d="M138.3,32.5l6.2-24h6.4l-8.8,32.8h-5.9l-8.8-32.8h6.4L138.3,32.5z"/>
	<path class="st1" d="M154.4,0h5.8v54h-5.8V0z"/>
</g>
</svg>
