<?xml version="1.0" encoding="UTF-8"?>
<svg width="1500" height="470" version="1.1" viewBox="0 0 1500 470" xmlns="http://www.w3.org/2000/svg" xmlns:cc="http://creativecommons.org/ns#" xmlns:dc="http://purl.org/dc/elements/1.1/" xmlns:rdf="http://www.w3.org/1999/02/22-rdf-syntax-ns#">
<metadata>
<rdf:RDF>
<cc:Work rdf:about="">
<dc:format>image/svg+xml</dc:format>
<dc:type rdf:resource="http://purl.org/dc/dcmitype/StillImage"/>
<dc:title/>
</cc:Work>
</rdf:RDF>
</metadata>
<g fill-rule="evenodd">
<path d="m0 0h1500v470h-1500z" fill="#fff"/>
<path d="m135.1 133.9c-5.1 0-10.1 0.1-15.2 0.2-5 0.1-9.6 0.2-13.7 0.2-10.9 0-19.5-1.8-25.8-5.3-6.3-3.5-9.5-8.9-9.5-16.1 0-4.5 1.6-8.2 4.8-11.1 3.2-2.9 7.4-4.4 12.5-4.4 5.7 0 10.3 1.7 13.8 5.2s5.2 8.1 5.2 13.9c0 2.5-0.5 5-1.4 7.4-0.9 2.4-1.4 4.1-1.4 5.2 0 3.1 2.1 4.7 6.2 4.7 4.5 0 8.3-1.9 11.4-5.6 3.1-3.7 4.7-8.5 4.7-14.3 0-7.3-2.5-13.4-7.6-18.2-5.1-4.8-12-7.2-20.8-7.2-9.5 0-17.4 2.9-23.7 8.8-6.3 5.9-9.5 13.5-9.5 22.9 0 8.6 3 15.8 9 21.5 6 5.7 14.3 8.5 24.9 8.5 5.9 0 11.9-0.2 18-0.5 6.1-0.3 11.6-0.5 16.5-0.5h0.5v-22.3zm-15.2 148.8c-11.9 0-21.7-3.1-29.4-9.3s-11.6-14.4-11.6-24.6c0-10.5 4.1-19.1 12.2-25.8 8.1-6.7 18.4-10.1 30.8-10.1 8.1 0 15.2 1.3 21.2 4s8.9 6.3 10.8 11.1l-18.8 8.1c-0.9-1.9-2.4-3.3-4.5-4.4-2.1-1.1-4.6-1.6-7.5-1.6-5.3 0-9.5 1.9-12.6 5.6-3.1 3.7-4.7 8.6-4.7 14.7 0 6.3 1.6 11.3 4.9 14.9 3.3 3.6 7.6 5.5 13 5.5 2.9 0 5.5-0.5 7.8-1.6 2.3-1.1 3.9-2.6 4.8-4.7l18.7 8.1c-2.3 5.3-6.1 9.5-11.4 12.6-5.3 3.1-11.6 4.7-18.9 4.7z" fill="#000"/>
<path d="m226.6 97.2h24.4v188h-24.4z" fill="#000"/>
<path d="m335.4 97.2h24.4v188h-24.4z" fill="#000"/>
<path d="m401.2 285.2v-188h23.9v165.1h40.2v22.9z" fill="#000"/>
<path d="m535.9 165.3c0-25.6-8.1-46.2-24.4-61.8-16.3-15.6-37.5-23.4-63.7-23.4-26.5 0-47.8 7.8-64 23.4-16.2 15.6-24.3 36.2-24.3 61.8 0 25.3 8.1 45.8 24.3 61.5 16.2 15.7 37.5 23.5 64 23.5s47.4-7.8 63.7-23.5c16.3-15.7 24.4-36.2 24.4-61.5zm-24.4 0c0 17.3-4.8 31.4-14.3 42.3-9.5 10.9-21.8 16.4-36.9 16.4-15.1 0-27.4-5.5-36.9-16.4-9.5-10.9-14.3-25-14.3-42.3 0-17.6 4.8-31.8 14.3-42.6 9.5-10.8 21.8-16.2 36.9-16.2s27.4 5.4 36.9 16.2c9.5 10.8 14.3 25 14.3 42.6z" fill="#000"/>
<path d="m600.5 285.2v-188h23.9v165.1h40.2v22.9z" fill="#000"/>
<path d="m754.6 165.3c0-25.6-8.1-46.2-24.4-61.8-16.3-15.6-37.5-23.4-63.7-23.4-26.5 0-47.8 7.8-64 23.4-16.2 15.6-24.3 36.2-24.3 61.8 0 25.3 8.1 45.8 24.3 61.5 16.2 15.7 37.5 23.5 64 23.5s47.4-7.8 63.7-23.5c16.3-15.7 24.4-36.2 24.4-61.5zm-24.4 0c0 17.3-4.8 31.4-14.3 42.3-9.5 10.9-21.8 16.4-36.9 16.4-15.1 0-27.4-5.5-36.9-16.4-9.5-10.9-14.3-25-14.3-42.3 0-17.6 4.8-31.8 14.3-42.6 9.5-10.8 21.8-16.2 36.9-16.2s27.4 5.4 36.9 16.2c9.5 10.8 14.3 25 14.3 42.6z" fill="#000"/>
<path d="m844.4 285.2v-188h24.4v188z" fill="#000"/>
<path d="m953.2 97.2h24.4v188h-24.4z" fill="#000"/>
<path d="m1020.4 285.2v-188h23.9v165.1h40.2v22.9z" fill="#000"/>
<path d="m1155.1 165.3c0-25.6-8.1-46.2-24.4-61.8-16.3-15.6-37.5-23.4-63.7-23.4-26.5 0-47.8 7.8-64 23.4-16.2 15.6-24.3 36.2-24.3 61.8 0 25.3 8.1 45.8 24.3 61.5 16.2 15.7 37.5 23.5 64 23.5s47.4-7.8 63.7-23.5c16.3-15.7 24.4-36.2 24.4-61.5zm-24.4 0c0 17.3-4.8 31.4-14.3 42.3-9.5 10.9-21.8 16.4-36.9 16.4-15.1 0-27.4-5.5-36.9-16.4-9.5-10.9-14.3-25-14.3-42.3 0-17.6 4.8-31.8 14.3-42.6 9.5-10.8 21.8-16.2 36.9-16.2s27.4 5.4 36.9 16.2c9.5 10.8 14.3 25 14.3 42.6z" fill="#000"/>
<path d="m1220.3 285.2v-188h23.9v165.1h40.2v22.9z" fill="#000"/>
<path d="m1354.5 165.3c0-25.6-8.1-46.2-24.4-61.8-16.3-15.6-37.5-23.4-63.7-23.4-26.5 0-47.8 7.8-64 23.4-16.2 15.6-24.3 36.2-24.3 61.8 0 25.3 8.1 45.8 24.3 61.5 16.2 15.7 37.5 23.5 64 23.5s47.4-7.8 63.7-23.5c16.3-15.7 24.4-36.2 24.4-61.5zm-24.4 0c0 17.3-4.8 31.4-14.3 42.3-9.5 10.9-21.8 16.4-36.9 16.4-15.1 0-27.4-5.5-36.9-16.4-9.5-10.9-14.3-25-14.3-42.3 0-17.6 4.8-31.8 14.3-42.6 9.5-10.8 21.8-16.2 36.9-16.2s27.4 5.4 36.9 16.2c9.5 10.8 14.3 25 14.3 42.6z" fill="#000"/>
<path d="m1420.3 285.2v-188h23.9v165.1h40.2v22.9z" fill="#000"/>
<path d="m226.6 372.8h24.4v22.9h-24.4z" fill="#000"/>
<path d="m335.4 372.8h24.4v22.9h-24.4z" fill="#000"/>
<path d="m401.2 372.8h64.1v22.9h-64.1z" fill="#000"/>
<path d="m447.5 372.8h24.4v22.9h-24.4z" fill="#000"/>
<path d="m535.9 372.8h24.4v22.9h-24.4z" fill="#000"/>
<path d="m600.5 372.8h64.1v22.9h-64.1z" fill="#000"/>
<path d="m754.6 372.8h24.4v22.9h-24.4z" fill="#000"/>
<path d="m844.4 372.8h24.4v22.9h-24.4z" fill="#000"/>
<path d="m953.2 372.8h24.4v22.9h-24.4z" fill="#000"/>
<path d="m1020.4 372.8h64.1v22.9h-64.1z" fill="#000"/>
<path d="m1155.1 372.8h24.4v22.9h-24.4z" fill="#000"/>
<path d="m1220.3 372.8h64.1v22.9h-64.1z" fill="#000"/>
<path d="m1354.5 372.8h24.4v22.9h-24.4z" fill="#000"/>
<path d="m1420.3 372.8h64.1v22.9h-64.1z" fill="#000"/>
<path d="m120.3 372.8h18.8v22.9h-18.8z" fill="#000"/>
<path d="m120.3 97.2h18.8v22.9h-18.8z" fill="#000"/>
<path d="m120.3 119.6h18.8v22.9h-18.8z" fill="#000"/>
<path d="m120.3 142.5h18.8v22.9h-18.8z" fill="#000"/>
<path d="m120.3 165.3h18.8v22.9h-18.8z" fill="#000"/>
<path d="m120.3 188.2h18.8v22.9h-18.8z" fill="#000"/>
<path d="m120.3 211.1h18.8v22.9h-18.8z" fill="#000"/>
<path d="m120.3 233.9h18.8v22.9h-18.8z" fill="#000"/>
<path d="m120.3 256.8h18.8v22.9h-18.8z" fill="#000"/>
<path d="m120.3 279.7h18.8v22.9h-18.8z" fill="#000"/>
<path d="m120.3 302.5h18.8v22.9h-18.8z" fill="#000"/>
<path d="m120.3 325.4h18.8v22.9h-18.8z" fill="#000"/>
<path d="m120.3 348.3h18.8v22.9h-18.8z" fill="#000"/>
<path d="m120.3 371.1h18.8v22.9h-18.8z" fill="#000"/>
<path d="m120.3 394h18.8v22.9h-18.8z" fill="#000"/>
<path d="m97.4 97.2h22.9v22.9h-22.9z" fill="#000"/>
<path d="m97.4 372.8h22.9v22.9h-22.9z" fill="#000"/>
<path d="m74.5 97.2h22.9v22.9h-22.9z" fill="#000"/>
<path d="m74.5 372.8h22.9v22.9h-22.9z" fill="#000"/>
<path d="m51.7 97.2h22.9v22.9h-22.9z" fill="#000"/>
<path d="m51.7 372.8h22.9v22.9h-22.9z" fill="#000"/>
<path d="m28.8 97.2h22.9v22.9h-22.9z" fill="#000"/>
<path d="m28.8 372.8h22.9v22.9h-22.9z" fill="#000"/>
<path d="m28.8 119.6h22.9v22.9h-22.9z" fill="#000"/>
<path d="m28.8 142.5h22.9v22.9h-22.9z" fill="#000"/>
<path d="m28.8 165.3h22.9v22.9h-22.9z" fill="#000"/>
<path d="m28.8 188.2h22.9v22.9h-22.9z" fill="#000"/>
<path d="m28.8 211.1h22.9v22.9h-22.9z" fill="#000"/>
<path d="m28.8 233.9h22.9v22.9h-22.9z" fill="#000"/>
<path d="m28.8 256.8h22.9v22.9h-22.9z" fill="#000"/>
<path d="m28.8 279.7h22.9v22.9h-22.9z" fill="#000"/>
<path d="m28.8 302.5h22.9v22.9h-22.9z" fill="#000"/>
<path d="m28.8 325.4h22.9v22.9h-22.9z" fill="#000"/>
<path d="m28.8 348.3h22.9v22.9h-22.9z" fill="#000"/>
<path d="m188.2 97.2h-18.8v22.9h18.8z" fill="#000"/>
<path d="m188.2 262.5h-18.8v22.9h18.8z" fill="#000"/>
<path d="m165.3 119.6h22.9v22.9h-22.9z" fill="#000"/>
<path d="m165.3 285.2h22.9v22.9h-22.9z" fill="#000"/>
<path d="m211.1 119.6h-22.9v22.9h22.9z" fill="#000"/>
<path d="m211.1 285.2h-22.9v22.9h22.9z" fill="#000"/>
<path d="m211.1 142.5h-22.9v22.9h22.9z" fill="#000"/>
<path d="m211.1 262.5h-22.9v22.9h22.9z" fill="#000"/>
<path d="m211.1 165.3h-22.9v22.9h22.9z" fill="#000"/>
<path d="m211.1 239.6h-22.9v22.9h22.9z" fill="#000"/>
<path d="m211.1 188.2h-22.9v22.9h22.9z" fill="#000"/>
<path d="m211.1 216.7h-22.9v22.9h22.9z" fill="#000"/>
<path d="m285.2 97.2h22.9v22.9h-22.9z" fill="#000"/>
<path d="m285.2 285.2h22.9v22.9h-22.9z" fill="#000"/>
<path d="m308.1 97.2h22.9v22.9h-22.9z" fill="#000"/>
<path d="m308.1 285.2h22.9v22.9h-22.9z" fill="#000"/>
<path d="m262.3 119.6h22.9v22.9h-22.9z" fill="#000"/>
<path d="m262.3 262.5h22.9v22.9h-22.9z" fill="#000"/>
<path d="m262.3 142.5h22.9v22.9h-22.9z" fill="#000"/>
<path d="m262.3 239.6h22.9v22.9h-22.9z" fill="#000"/>
<path d="m285.2 165.3h22.9v22.9h-22.9z" fill="#000"/>
<path d="m285.2 216.7h22.9v22.9h-22.9z" fill="#000"/>
<path d="m308.1 188.2h22.9v22.9h-22.9z" fill="#000"/>
<path d="m890.2 97.2h18.8v22.9h-18.8z" fill="#000"/>
<path d="m890.2 285.2h18.8v22.9h-18.8z" fill="#000"/>
<path d="m867.3 119.6h22.9v22.9h-22.9z" fill="#000"/>
<path d="m867.3 262.5h22.9v22.9h-22.9z" fill="#000"/>
<path d="m867.3 142.5h22.9v22.9h-22.9z" fill="#000"/>
<path d="m867.3 239.6h22.9v22.9h-22.9z" fill="#000"/>
<path d="m890.2 165.3h22.9v22.9h-22.9z" fill="#000"/>
<path d="m890.2 216.7h22.9v22.9h-22.9z" fill="#000"/>
<path d="m913.1 188.2h22.9v22.9h-22.9z" fill="#000"/>
<path d="m976.1 97.2h22.9v22.9h-22.9z" fill="#000"/>
<path d="m976.1 188.2h22.9v22.9h-22.9z" fill="#000"/>
<path d="m999 119.6h22.9v22.9h-22.9z" fill="#000"/>
<path d="m999 165.3h22.9v22.9h-22.9z" fill="#000"/>
<path d="m976.1 142.5h22.9v22.9h-22.9z" fill="#000"/>
<path d="m999 211.1h22.9v22.9h-22.9z" fill="#000"/>
<path d="m976.1 233.9h22.9v22.9h-22.9z" fill="#000"/>
<path d="m999 256.8h22.9v22.9h-22.9z" fill="#000"/>
<path d="m976.1 285.2h22.9v22.9h-22.9z" fill="#000"/>
</g>
</svg>
